<?xml version="1.0" encoding="UTF-8"?>
<svg version="1.1" xmlns="http://www.w3.org/2000/svg" width="674" height="674">
<path d="M0 0 C1.60307762 -0.01052147 1.60307762 -0.01052147 3.23854065 -0.02125549 C6.66818501 -0.0386658 10.09765682 -0.04510765 13.52734375 -0.046875 C14.69779236 -0.04754974 15.86824097 -0.04822449 17.07415771 -0.04891968 C33.74787068 -0.03361797 50.00703782 0.29813945 66.46484375 3.203125 C67.50495605 3.37473145 68.54506836 3.54633789 69.61669922 3.72314453 C124.35964901 12.83746693 176.60647104 35.07264823 220.46484375 69.203125 C221.10583008 69.70134766 221.74681641 70.19957031 222.40722656 70.71289062 C240.00340487 84.49127306 257.18957377 99.9562682 271.46484375 117.203125 C271.90731445 117.72648437 272.34978516 118.24984375 272.80566406 118.7890625 C319.91351155 174.57547271 351.34395886 249.16502433 351.66796875 322.73828125 C351.67498306 323.80699966 351.68199738 324.87571808 351.68922424 325.9768219 C351.70663455 329.40646626 351.7130764 332.83593807 351.71484375 336.265625 C351.71585587 338.02129791 351.71585587 338.02129791 351.71688843 339.81243896 C351.70158672 356.48615193 351.3698293 372.74531907 348.46484375 389.203125 C348.2932373 390.2432373 348.12163086 391.28334961 347.94482422 392.35498047 C338.83050182 447.09793026 316.59532052 499.34475229 282.46484375 543.203125 C281.96662109 543.84411133 281.46839844 544.48509766 280.95507812 545.14550781 C267.17669569 562.74168612 251.71170055 579.92785502 234.46484375 594.203125 C233.94148437 594.6455957 233.418125 595.08806641 232.87890625 595.54394531 C177.09249604 642.6517928 102.50294442 674.08224011 28.9296875 674.40625 C27.86096909 674.41326431 26.79225067 674.42027863 25.69114685 674.42750549 C22.26150249 674.4449158 18.83203068 674.45135765 15.40234375 674.453125 C13.64667084 674.45413712 13.64667084 674.45413712 11.85552979 674.45516968 C-4.81818318 674.43986797 -21.07735032 674.10811055 -37.53515625 671.203125 C-38.57526855 671.03151855 -39.61538086 670.85991211 -40.68701172 670.68310547 C-95.42996151 661.56878307 -147.67678354 639.33360177 -191.53515625 605.203125 C-192.17614258 604.70490234 -192.81712891 604.20667969 -193.47753906 603.69335938 C-211.07371737 589.91497694 -228.25988627 574.4499818 -242.53515625 557.203125 C-242.97762695 556.67976562 -243.42009766 556.15640625 -243.87597656 555.6171875 C-290.98382405 499.83077729 -322.41427136 425.24122567 -322.73828125 351.66796875 C-322.74880272 350.06489113 -322.74880272 350.06489113 -322.75953674 348.4294281 C-322.77694705 344.99978374 -322.7833889 341.57031193 -322.78515625 338.140625 C-322.78583099 336.97017639 -322.78650574 335.79972778 -322.78720093 334.59381104 C-322.77189922 317.92009807 -322.4401418 301.66093093 -319.53515625 285.203125 C-319.3635498 284.1630127 -319.19194336 283.12290039 -319.01513672 282.05126953 C-309.90081432 227.30831974 -287.66563302 175.06149771 -253.53515625 131.203125 C-253.03693359 130.56213867 -252.53871094 129.92115234 -252.02539062 129.26074219 C-238.24700819 111.66456388 -222.78201305 94.47839498 -205.53515625 80.203125 C-204.75011719 79.53941895 -204.75011719 79.53941895 -203.94921875 78.86230469 C-148.16280854 31.7544572 -73.57325692 0.32400989 0 0 Z " fill="#1E7D1F" transform="translate(322.53515625,-0.203125)"/>
<path d="M0 0 C0.79301514 -0.04286133 1.58603027 -0.08572266 2.40307617 -0.12988281 C6.85868303 -0.18070186 9.53238257 0.41096954 13.06640625 3.21875 C15.75174157 5.84475589 16.9412947 7.64567161 17.0625 11.5 C17.12953125 12.40234375 17.1965625 13.3046875 17.265625 14.234375 C17.41138271 23.61145426 16.01403781 32.37088026 14.0625 41.5 C13.79566406 42.77230469 13.52882813 44.04460937 13.25390625 45.35546875 C10.01584467 59.01289292 3.73170366 71.47007498 -4.9375 82.5 C-5.76701172 83.57507813 -5.76701172 83.57507813 -6.61328125 84.671875 C-10.68150301 89.64726346 -15.26024117 93.44746165 -20.9375 96.5 C-21.5975 96.5 -22.2575 96.5 -22.9375 96.5 C-23.2675 97.49 -23.5975 98.48 -23.9375 99.5 C-28.07590467 101.60771541 -32.55551503 102.97285019 -36.9375 104.5 C-37.6584082 104.75749023 -38.37931641 105.01498047 -39.12207031 105.28027344 C-50.50149788 109.335577 -61.69341104 113.0565495 -73.9375 112.5 C-77.45643713 127.95818811 -76.32150427 142.97502511 -73.9375 158.5 C-70.72080899 179.80741745 -68.30330803 202.70691883 -79.02880859 222.21069336 C-79.57250092 223.20121201 -80.11619324 224.19173065 -80.67636108 225.21226501 C-81.09253693 225.96721756 -81.50871277 226.7221701 -81.9375 227.5 C-81.21166718 227.49555878 -80.48583435 227.49111755 -79.73800659 227.48654175 C-72.88217393 227.44639036 -66.02635894 227.41597769 -59.17043877 227.39637566 C-55.64612671 227.38595911 -52.12191219 227.37183908 -48.59765625 227.34912109 C-44.54165739 227.3231404 -40.48576025 227.31350962 -36.4296875 227.3046875 C-35.17010223 227.29436493 -33.91051697 227.28404236 -32.61276245 227.27340698 C-30.84160568 227.27318039 -30.84160568 227.27318039 -29.03466797 227.27294922 C-27.48246048 227.26628738 -27.48246048 227.26628738 -25.89889526 227.25949097 C-22.65286977 227.52311618 -19.97623392 228.3561681 -16.9375 229.5 C-16.9375 230.16 -16.9375 230.82 -16.9375 231.5 C-16.2775 231.5 -15.6175 231.5 -14.9375 231.5 C-11.93108287 234.59484116 -11.48148452 237.00549379 -11.4375 241.25 C-11.56651924 247.10604004 -12.9976777 251.14231776 -16.9375 255.5 C-19.69898098 256.88074049 -21.91930198 256.6259532 -25.01098633 256.62698364 C-26.30662506 256.62980347 -27.60226379 256.63262329 -28.93716431 256.63552856 C-30.38128676 256.63358408 -31.82540908 256.6315359 -33.26953125 256.62939453 C-34.78380373 256.63074891 -36.29807589 256.63252905 -37.81234741 256.63470459 C-41.93207477 256.63927459 -46.05177716 256.63749113 -50.17150497 256.6343255 C-54.47607238 256.63179968 -58.78063759 256.63414007 -63.08520508 256.63571167 C-70.31494532 256.63753271 -77.54467537 256.63512876 -84.77441406 256.63037109 C-93.14161274 256.6249286 -101.50878706 256.6266913 -109.87598515 256.6321975 C-117.05052175 256.63673048 -124.22505101 256.63737827 -131.39958858 256.63475883 C-135.68872922 256.63319708 -139.97785839 256.63299951 -144.26699829 256.63629532 C-148.29869354 256.63917671 -152.33035727 256.63719337 -156.3620491 256.63140106 C-157.8447629 256.63007491 -159.32747934 256.63046514 -160.81019211 256.63266373 C-162.82813169 256.63538085 -164.84607704 256.63137547 -166.86401367 256.62698364 C-167.99522141 256.62660662 -169.12642914 256.62622959 -170.29191589 256.62584114 C-172.9375 256.5 -172.9375 256.5 -174.9375 255.5 C-174.9375 254.84 -174.9375 254.18 -174.9375 253.5 C-175.8346875 253.1596875 -175.8346875 253.1596875 -176.75 252.8125 C-179.70488497 251.03956902 -180.58249863 249.68425322 -181.9375 246.5 C-182.70692998 240.86444529 -182.26048448 236.26294443 -178.9375 231.5 C-173.64113646 226.90734178 -169.26798687 226.977783 -162.60546875 227.1015625 C-160.56966031 227.09682573 -158.53385295 227.09160216 -156.49804688 227.0859375 C-153.31189354 227.10065075 -150.12617938 227.12498698 -146.94018555 227.16015625 C-143.84891536 227.18696401 -140.75929095 227.17718488 -137.66796875 227.1640625 C-136.7270488 227.18570465 -135.78612885 227.2073468 -134.81669617 227.22964478 C-127.63074093 227.17654787 -123.49355208 224.93177772 -117.9375 220.5 C-116.96039063 219.78714844 -115.98328125 219.07429687 -114.9765625 218.33984375 C-114.17992187 217.71207031 -113.38328125 217.08429688 -112.5625 216.4375 C-111.75039063 215.80714844 -110.93828125 215.17679688 -110.1015625 214.52734375 C-107.81000609 212.38056076 -106.52795293 210.18330801 -104.9375 207.5 C-104.2775 207.5 -103.6175 207.5 -102.9375 207.5 C-102.793125 206.613125 -102.64875 205.72625 -102.5 204.8125 C-102.18393913 202.95125267 -101.84254203 201.09253111 -101.4140625 199.25390625 C-99.68984877 189.29021214 -100.92484892 178.80173076 -102.5 168.90234375 C-102.95068981 165.39742567 -103.00944334 162.02972005 -102.9375 158.5 C-103.54335938 158.63277344 -104.14921875 158.76554688 -104.7734375 158.90234375 C-120.70950853 162.26117718 -137.07379436 162.67369062 -153.1875 160.25 C-153.94861084 160.14075195 -154.70972168 160.03150391 -155.49389648 159.91894531 C-160.16984561 159.1314388 -163.96804871 157.72290463 -168.12280273 155.43554688 C-169.96847113 154.48403318 -171.76606515 153.85213123 -173.75 153.25 C-179.44094378 151.21670871 -184.4000026 147.42860528 -188.9375 143.5 C-188.9375 142.84 -188.9375 142.18 -188.9375 141.5 C-189.76507813 141.16935547 -189.76507813 141.16935547 -190.609375 140.83203125 C-207.52814872 131.15199461 -218.11666283 105.50293511 -224.08984375 87.765625 C-225.69533429 81.5804172 -226.37453284 76.06613007 -223.1875 70.375 C-220.99419289 68.54724408 -219.74722581 67.80104205 -216.9375 67.5 C-216.9375 66.84 -216.9375 66.18 -216.9375 65.5 C-206.40908645 63.13698775 -196.43070462 62.06499107 -185.64355469 62.21875 C-183.41063865 62.25038051 -181.17843244 62.25979186 -178.9453125 62.265625 C-172.19092689 62.30826585 -165.62928132 62.57398811 -158.9375 63.5 C-158.9375 64.16 -158.9375 64.82 -158.9375 65.5 C-157.77863281 65.61085938 -156.61976563 65.72171875 -155.42578125 65.8359375 C-151.07271262 66.38545617 -147.21022103 67.55779643 -143.125 69.125 C-142.43575439 69.38498779 -141.74650879 69.64497559 -141.03637695 69.9128418 C-135.628269 72.03972478 -130.85635048 74.76456467 -126.07421875 78.08203125 C-123.90382335 79.65626937 -123.90382335 79.65626937 -120.9375 80.5 C-119.2890625 82.171875 -119.2890625 82.171875 -117.5625 84.25 C-115.58412753 86.59259167 -113.66434792 88.75949447 -111.4375 90.875 C-107.76912972 94.7267888 -104.9043474 99.09675385 -101.9375 103.5 C-98.35524893 98.87797029 -97.46558361 96.05913471 -97.375 90.0625 C-96.66111988 69.48174192 -90.00183188 46.1805265 -75.9375 30.5 C-75.31746094 29.7884375 -74.69742188 29.076875 -74.05859375 28.34375 C-64.44525969 18.00454725 -51.4828339 10.27375298 -37.9375 6.5 C-36.86371094 6.17 -35.78992188 5.84 -34.68359375 5.5 C-23.18775642 2.02546121 -11.98216583 0.35612343 0 0 Z " fill="#F7F9F7" transform="translate(435.9375,211.5)"/>
<path d="M0 0 C20.65850122 -0.84093348 37.75949519 0.45364475 54.45703125 13.9921875 C60.69884538 19.79803165 64.8741064 26.60901075 69 34 C69.40347656 34.70511719 69.80695313 35.41023438 70.22265625 36.13671875 C71 38 71 38 71 42 C54.40611967 42.62356962 36.69993796 42.70910643 23 32 C22.1853125 31.38640625 21.370625 30.7728125 20.53125 30.140625 C12.97694607 23.93863474 8.06852807 16.22759636 3 8 C2.41089844 7.08734375 1.82179687 6.1746875 1.21484375 5.234375 C0 3 0 3 0 0 Z " fill="#237E24" transform="translate(245,303)"/>
<path d="M0 0 C1.20267185 13.22939035 -6.93652658 27.06226239 -15.03515625 37.00390625 C-18.54464689 40.56921383 -22.54037851 42.80213497 -27 45 C-27.94101562 45.4640625 -28.88203125 45.928125 -29.8515625 46.40625 C-37.09739891 49.69459792 -44.1109475 51.14747336 -52 52 C-52.73455125 43.47920547 -50.11008659 36.80853883 -47 29 C-46.34 29 -45.68 29 -45 29 C-44.87625 28.443125 -44.7525 27.88625 -44.625 27.3125 C-44.315625 26.1678125 -44.315625 26.1678125 -44 25 C-43.690625 23.824375 -43.690625 23.824375 -43.375 22.625 C-41.4119242 18.87730984 -38.47263527 16.38334166 -35 14 C-34.34 14 -33.68 14 -33 14 C-32.67 13.01 -32.34 12.02 -32 11 C-26.54011247 6.37426196 -19.94127654 4.11779887 -13.1875 2.125 C-12.45853516 1.9098877 -11.72957031 1.69477539 -10.97851562 1.47314453 C-7.24414287 0.43476904 -3.88044814 -0.25920479 0 0 Z " fill="#227D23" transform="translate(422,242)"/>
<path d="M0 0 C0.66 0 1.32 0 2 0 C0.81641978 3.3686514 -0.10757126 5.83745513 -3 8 C-5.76863194 8.37473011 -5.76863194 8.37473011 -9.19374084 8.3742218 C-10.49075424 8.38123611 -11.78776764 8.38825043 -13.12408447 8.39547729 C-14.56457674 8.38804935 -16.00506746 8.3803182 -17.44555664 8.37231445 C-18.95997874 8.37474195 -20.47439924 8.37846086 -21.98881531 8.38337708 C-26.1044285 8.39279474 -30.21980424 8.38335382 -34.33539891 8.37004495 C-38.63729093 8.3587442 -42.93917102 8.36283683 -47.24107361 8.36479187 C-54.46487314 8.36567519 -61.68857889 8.3545858 -68.91235352 8.33618164 C-77.27221891 8.31500542 -85.63194696 8.3115056 -93.99183375 8.3177436 C-102.02491835 8.32343154 -110.05795442 8.31779886 -118.09103203 8.30657005 C-121.51405163 8.30191731 -124.93704164 8.30105311 -128.36006355 8.3031559 C-132.38771403 8.3050349 -136.41522404 8.29696498 -140.44284248 8.2810955 C-141.9239392 8.27684103 -143.40505014 8.27600988 -144.88615036 8.27878571 C-146.90185431 8.28199125 -148.9175665 8.27173083 -150.9332428 8.26069641 C-152.06315171 8.25864354 -153.19306063 8.25659067 -154.35720921 8.25447559 C-157 8 -157 8 -159 6 C-158.21847628 5.99668985 -157.43695255 5.99337971 -156.63174629 5.98996925 C-137.63730173 5.90883657 -118.64293911 5.81677637 -99.64860725 5.71247292 C-90.46318359 5.66229806 -81.27776906 5.61585582 -72.09228516 5.578125 C-64.08853647 5.54523896 -56.08485774 5.50542672 -48.08118618 5.45720994 C-43.84120718 5.43191111 -39.60127479 5.41013996 -35.36124039 5.39665604 C-31.37382277 5.38386622 -27.38656475 5.36184557 -23.39923477 5.33261681 C-21.93266521 5.32351682 -20.46606992 5.31784519 -18.99947357 5.31578636 C-17.00328532 5.31248101 -15.00713212 5.29585886 -13.01101685 5.2784729 C-11.89196016 5.27294214 -10.77290348 5.26741138 -9.61993599 5.26171303 C-6.8412291 5.26344233 -6.8412291 5.26344233 -5 3 C-2.375 2.875 -2.375 2.875 0 3 C0 2.01 0 1.02 0 0 Z " fill="#C1DFC3" transform="translate(420,460)"/>
<path d="M0 0 C1.01252838 0.00565979 2.02505676 0.01131958 3.06826782 0.01715088 C6.28818927 0.03946246 9.5069799 0.08965028 12.7265625 0.140625 C14.91534846 0.16069669 17.10415194 0.17894629 19.29296875 0.1953125 C24.64621628 0.23930995 29.99880858 0.30616982 35.3515625 0.390625 C32.269118 3.4730695 28.58174206 2.72909275 24.44140625 2.76953125 C23.11744591 2.79502296 23.11744591 2.79502296 21.76673889 2.82102966 C18.94091985 2.87427039 16.11511638 2.9145105 13.2890625 2.953125 C10.45951324 2.99698841 7.63008072 3.0436367 4.80067444 3.09593201 C3.03793563 3.12799608 1.27509338 3.15485234 -0.48780823 3.17616272 C-4.38259048 2.86028455 -4.38259048 2.86028455 -7.6484375 4.390625 C-9.31460865 4.43126332 -10.98231845 4.433346 -12.6484375 4.390625 C-12.7721875 5.03 -12.8959375 5.669375 -13.0234375 6.328125 C-13.2296875 7.00875 -13.4359375 7.689375 -13.6484375 8.390625 C-14.6384375 8.885625 -14.6384375 8.885625 -15.6484375 9.390625 C-17.83326243 12.6678624 -17.8423206 12.88363022 -17.1484375 16.453125 C-16.9009375 18.4021875 -16.9009375 18.4021875 -16.6484375 20.390625 C-17.3084375 21.050625 -17.9684375 21.710625 -18.6484375 22.390625 C-20.38047555 17.19451084 -20.28230755 12.25702015 -18.5234375 7.078125 C-13.52793543 -0.08209463 -8.15628524 -0.17266525 0 0 Z " fill="#CBE8CD" transform="translate(273.6484375,438.609375)"/>
<path d="M0 0 C2.31 0 4.62 0 7 0 C5.75 1.5 5.75 1.5 4 3 C2.68 3 1.36 3 0 3 C0.33 3.99 0.66 4.98 1 6 C1.13156527 9.68382769 1.16982138 12.49053585 0 16 C-0.09334796 17.6085791 -0.13069617 19.22074726 -0.1328125 20.83203125 C-0.13474609 21.78972412 -0.13667969 22.74741699 -0.13867188 23.73413086 C-0.13416016 24.74999268 -0.12964844 25.76585449 -0.125 26.8125 C-0.12306641 27.84318604 -0.12113281 28.87387207 -0.11914062 29.93579102 C-0.07559259 37.66254258 0.25328303 45.30614841 1 53 C0.67 53 0.34 53 0 53 C-6.68468468 13.36936937 -6.68468468 13.36936937 0 0 Z " fill="#317833" transform="translate(362,324)"/>
<path d="M0 0 C0.99 0 1.98 0 3 0 C2.79503906 0.61746094 2.59007812 1.23492187 2.37890625 1.87109375 C0.54784707 7.62710276 -0.51449864 12.97978316 -1 19 C0.51980469 18.58427734 0.51980469 18.58427734 2.0703125 18.16015625 C3.42183394 17.79411919 4.77339876 17.42824228 6.125 17.0625 C6.79015625 16.88009766 7.4553125 16.69769531 8.140625 16.50976562 C12.07445227 15.44917494 15.96973565 14.59637868 20 14 C20 14.66 20 15.32 20 16 C14.73171662 19.06518306 11.26651129 20.38028008 5.1875 20.07421875 C2.03068543 19.96711254 -0.89233524 20.47103579 -4 21 C-3.67 19.35 -3.34 17.7 -3 16 C-3.66 16 -4.32 16 -5 16 C-5.6875 13.6875 -5.6875 13.6875 -6 11 C-5.01129836 9.98882787 -4.00966115 8.99024459 -3 8 C-2.01371583 5.96922316 -2.01371583 5.96922316 -1.3125 3.8125 C-1.06113281 3.09707031 -0.80976563 2.38164062 -0.55078125 1.64453125 C-0.36902344 1.10183594 -0.18726563 0.55914062 0 0 Z " fill="#D9F0D9" transform="translate(371,275)"/>
<path d="M0 0 C0.66 0.33 1.32 0.66 2 1 C0.71034824 2.37562854 -0.62689293 3.70766393 -2 5 C-2.66 5 -3.32 5 -4 5 C-4 5.66 -4 6.32 -4 7 C-5.5778125 7.0928125 -5.5778125 7.0928125 -7.1875 7.1875 C-11.69939699 8.14905182 -13.04650158 9.55425185 -16 13 C-18.55921955 15.72889156 -21.36437397 17.67022084 -24.4765625 19.71875 C-26.29844458 21.02449398 -26.29844458 21.02449398 -27 24 C-30.5625 25.6875 -30.5625 25.6875 -34 27 C-28.59476267 14.43569834 -12.05067335 5.0983618 0 0 Z " fill="#D5ECD6" transform="translate(391,220)"/>
<path d="M0 0 C2.87529818 1.28892677 5.05008298 2.49296383 7 5 C9.5918101 15.13646278 7.85369129 25.88745196 6 36 C5.67 36 5.34 36 5 36 C5.14308594 34.21142578 5.14308594 34.21142578 5.2890625 32.38671875 C5.40161568 30.82035364 5.51356334 29.25394494 5.625 27.6875 C5.68945312 26.90181641 5.75390625 26.11613281 5.8203125 25.30664062 C5.89765625 24.1706543 5.89765625 24.1706543 5.9765625 23.01171875 C6.02893066 22.31522217 6.08129883 21.61872559 6.13525391 20.90112305 C6.13355856 18.66489452 6.13355856 18.66489452 4 16 C3.67 15.34 3.34 14.68 3 14 C2.34 14.66 1.68 15.32 1 16 C1.66 12.7 2.32 9.4 3 6 C2.34 6 1.68 6 1 6 C0.67 4.02 0.34 2.04 0 0 Z " fill="#DDF0DC" transform="translate(445,213)"/>
<path d="M0 0 C5.04880717 32.36965732 5.04880717 32.36965732 1 45 C0.34 44.67 -0.32 44.34 -1 44 C-1 43.34 -1 42.68 -1 42 C-0.34 42 0.32 42 1 42 C0.34 29.13 -0.32 16.26 -1 3 C-7.27 3 -13.54 3 -20 3 C-20 2.67 -20 2.34 -20 2 C-17.2294096 1.66453392 -14.45856036 1.33154158 -11.6875 1 C-10.90181641 0.90460938 -10.11613281 0.80921875 -9.30664062 0.7109375 C-8.54931641 0.62070312 -7.79199219 0.53046875 -7.01171875 0.4375 C-6.31522217 0.35371094 -5.61872559 0.26992188 -4.90112305 0.18359375 C-3 0 -3 0 0 0 Z " fill="#3A7D3D" transform="translate(333,370)"/>
<path d="M0 0 C1.125 1.6875 1.125 1.6875 2 4 C1.375 6.25 1.375 6.25 0 9 C-0.29390625 9.64582031 -0.5878125 10.29164063 -0.890625 10.95703125 C-2.75814006 14.95143847 -4.50181122 18.17888001 -8 21 C-8.99 21.33 -9.98 21.66 -11 22 C-11.309375 22.804375 -11.61875 23.60875 -11.9375 24.4375 C-13 27 -13 27 -14.625 28.25 C-18.05750779 29.33394983 -21.41844132 29.64184413 -25 30 C-22.76972679 27.60688144 -20.43997238 25.88392018 -17.6875 24.125 C-11.93656583 20.33779945 -7.4797031 17.08948043 -4 11 C-3.34 11 -2.68 11 -2 11 C-1.855625 10.113125 -1.71125 9.22625 -1.5625 8.3125 C-1.08980022 5.52882354 -0.56929815 2.76516243 0 0 Z " fill="#CCE7CD" transform="translate(335,408)"/>
<path d="M0 0 C0.66 0.33 1.32 0.66 2 1 C-4.4706098 10.59774342 -10.58935181 19.40242134 -21 25 C-21.66 25 -22.32 25 -23 25 C-23 24.34 -23 23.68 -23 23 C-22.34 23 -21.68 23 -21 23 C-21 22.34 -21 21.68 -21 21 C-15.70588235 17 -15.70588235 17 -12 17 C-11.62875 15.6078125 -11.62875 15.6078125 -11.25 14.1875 C-9.90181032 10.74961632 -8.95347882 10.00074372 -6 8 C-5.67 7.01 -5.34 6.02 -5 5 C-4.34 5 -3.68 5 -3 5 C-2.67 4.01 -2.34 3.02 -2 2 C-1.34 2 -0.68 2 0 2 C0 1.34 0 0.68 0 0 Z " fill="#E0F7E1" transform="translate(436,283)"/>
<path d="M0 0 C1.21823184 3.65469551 0.6247906 5.19687127 -0.375 8.875 C-2.32932237 16.16261331 -3.24566838 22.93486039 -3.51757812 30.46875 C-3.60829277 32.31727479 -3.79631037 34.16049366 -4 36 C-4.99 36.495 -4.99 36.495 -6 37 C-6.50812345 24.80503727 -7.06183831 10.59275746 0 0 Z " fill="#347A36" transform="translate(343,273)"/>
<path d="M0 0 C0.33 0 0.66 0 1 0 C1 2.64 1 5.28 1 8 C0.01 8 -0.98 8 -2 8 C-2.64845409 10.40854375 -3.09715183 12.70782047 -3.4375 15.1875 C-3.623125 16.115625 -3.80875 17.04375 -4 18 C-4.66 18.33 -5.32 18.66 -6 19 C-6.33 19.99 -6.66 20.98 -7 22 C-8.2375 22.4640625 -8.2375 22.4640625 -9.5 22.9375 C-10.325 23.288125 -11.15 23.63875 -12 24 C-12.66179847 25.98045559 -12.66179847 25.98045559 -13 28 C-16 30 -16 30 -18.1875 29.625 C-19.0846875 29.315625 -19.0846875 29.315625 -20 29 C-16.25 26 -16.25 26 -14 26 C-13.72800781 25.41347656 -13.45601563 24.82695312 -13.17578125 24.22265625 C-12.02280864 22.04311667 -10.74557711 20.34090291 -9.1875 18.4375 C-4.94322769 12.9033018 -2.19764021 6.59292064 0 0 Z " fill="#D7EEDA" transform="translate(419,255)"/>
<path d="M0 0 C1.80791016 0.01933594 1.80791016 0.01933594 3.65234375 0.0390625 C4.90660156 0.07257813 6.16085937 0.10609375 7.453125 0.140625 C8.72285156 0.15867188 9.99257813 0.17671875 11.30078125 0.1953125 C14.43565577 0.24245347 17.5690106 0.30824836 20.703125 0.390625 C20.703125 1.380625 20.703125 2.370625 20.703125 3.390625 C20.11934082 3.38538818 19.53555664 3.38015137 18.93408203 3.37475586 C16.23210776 3.35368419 13.53015089 3.34087041 10.828125 3.328125 C9.9103125 3.31974609 8.9925 3.31136719 8.046875 3.30273438 C1.8695603 3.28098327 -4.16409335 3.65132392 -10.296875 4.390625 C-7.06166935 0.41201039 -5.06216991 -0.09551264 0 0 Z " fill="#529253" transform="translate(426.296875,209.609375)"/>
<path d="M0 0 C1.125 1.625 1.125 1.625 2 4 C1.39421747 6.01927511 0.73080266 8.02253397 0 10 C0.33 10.66 0.66 11.32 1 12 C0.34 12.66 -0.32 13.32 -1 14 C-2.32 14 -3.64 14 -5 14 C-5.268125 14.78375 -5.53625 15.5675 -5.8125 16.375 C-7 19 -7 19 -10 21 C-8.57102386 16.32530922 -6.65278433 12.03128432 -4.4375 7.6875 C-4.12103516 7.05521484 -3.80457031 6.42292969 -3.47851562 5.77148438 C-1.14087865 1.14087865 -1.14087865 1.14087865 0 0 Z " fill="#F0F8EF" transform="translate(356,247)"/>
<path d="M0 0 C0.92296875 0.13277344 1.8459375 0.26554687 2.796875 0.40234375 C13.85328144 1.89911023 24.85481238 2.56606851 36 3 C36 3.33 36 3.66 36 4 C30.90993378 4.83726938 26.02911738 5.1542294 20.875 5.125 C20.18535156 5.12886719 19.49570312 5.13273437 18.78515625 5.13671875 C15.06410302 5.12960393 11.61726778 4.88672323 8 4 C8 3.34 8 2.68 8 2 C6.02 2.33 4.04 2.66 2 3 C2 2.34 2 1.68 2 1 C1.34 0.67 0.68 0.34 0 0 Z " fill="#4F9150" transform="translate(277,370)"/>
<path d="M0 0 C0.33 0 0.66 0 1 0 C1.05802751 4.58328022 1.09360593 9.16646604 1.125 13.75 C1.14175781 15.05195313 1.15851563 16.35390625 1.17578125 17.6953125 C1.18222656 18.94570313 1.18867188 20.19609375 1.1953125 21.484375 C1.20578613 22.63647461 1.21625977 23.78857422 1.22705078 24.97558594 C1.00758762 27.89892966 0.52728122 29.53732509 -1 32 C-2.10616646 26.01514413 -1.96293937 20.37428741 -1.625 14.3125 C-1.58117187 13.37599609 -1.53734375 12.43949219 -1.4921875 11.47460938 C-1.28860681 7.51326853 -1.07540238 3.83311196 0 0 Z " fill="#E3F8E3" transform="translate(363,385)"/>
<path d="M0 0 C0.33 1.32 0.66 2.64 1 4 C-20.72340426 4.38297872 -20.72340426 4.38297872 -30 2 C-30 1.67 -30 1.34 -30 1 C-19.93605753 0.8823695 -10.03442033 1.12198822 0 2 C0 1.34 0 0.68 0 0 Z " fill="#5D975F" transform="translate(315,341)"/>
<path d="M0 0 C3.17874732 3.06209604 5.97384301 6.32062959 8.75 9.75 C9.54921875 10.73484375 10.3484375 11.7196875 11.171875 12.734375 C11.77515625 13.48203125 12.3784375 14.2296875 13 15 C11.68 15.33 10.36 15.66 9 16 C9 15.01 9 14.02 9 13 C8.01 13.33 7.02 13.66 6 14 C0.11816193 7.10284464 0.11816193 7.10284464 -0.375 2.5 C-0.25125 1.675 -0.1275 0.85 0 0 Z " fill="#468846" transform="translate(228,333)"/>
<path d="M0 0 C-3.40502077 3.13028804 -5.88422599 3.37596075 -10.4375 3.5 C-16.65063707 3.79864609 -22.26451552 4.84746183 -28.2578125 6.4765625 C-30.97250978 6.99475258 -32.4323832 6.92139359 -35 6 C-23.45912939 2.38690069 -12.18605077 -0.18487056 0 0 Z " fill="#D8F2D8" transform="translate(433,212)"/>
<path d="M0 0 C0.66 0.33 1.32 0.66 2 1 C0.71034824 2.37562854 -0.62689293 3.70766393 -2 5 C-2.66 5 -3.32 5 -4 5 C-4 5.66 -4 6.32 -4 7 C-5.093125 7.103125 -6.18625 7.20625 -7.3125 7.3125 C-11.18141612 8.03382335 -11.53808718 8.3240078 -14 11 C-17.1875 12.1875 -17.1875 12.1875 -20 13 C-14.88942009 6.97681654 -7.46371024 2.48790341 0 0 Z " fill="#CDE7CC" transform="translate(391,220)"/>
<path d="M0 0 C-2.83890446 1.4746712 -5.6968137 2.68075881 -8.6875 3.8125 C-17.56310486 6.89573379 -17.56310486 6.89573379 -24 13 C-24.66 12.67 -25.32 12.34 -26 12 C-25.67 11.01 -25.34 10.02 -25 9 C-24.01 9 -23.02 9 -22 9 C-22 8.01 -22 7.02 -22 6 C-18.535 5.505 -18.535 5.505 -15 5 C-15 4.34 -15 3.68 -15 3 C-9.89665983 1.094753 -5.53657294 -0.42589023 0 0 Z " fill="#D8F0D8" transform="translate(413,243)"/>
<path d="M0 0 C0.66 0.33 1.32 0.66 2 1 C1.625 3.4375 1.625 3.4375 1 6 C0.01 6.495 0.01 6.495 -1 7 C-3.18482493 10.2772374 -3.1938831 10.49300522 -2.5 14.0625 C-2.335 15.361875 -2.17 16.66125 -2 18 C-2.66 18.66 -3.32 19.32 -4 20 C-5.76766555 14.69700335 -5.7010976 9.752744 -3.625 4.5625 C-2 2 -2 2 0 0 Z " fill="#E4F8E5" transform="translate(259,441)"/>
<path d="M0 0 C0.33 0 0.66 0 1 0 C1 1.98 1 3.96 1 6 C2.01320313 5.72285156 3.02640625 5.44570313 4.0703125 5.16015625 C5.42183394 4.79411919 6.77339876 4.42824228 8.125 4.0625 C8.79015625 3.88009766 9.4553125 3.69769531 10.140625 3.50976562 C14.07445227 2.44917494 17.96973565 1.59637868 22 1 C22 1.66 22 2.32 22 3 C14.75903687 7.63421641 8.44333791 7.42691034 0 7 C0 4.69 0 2.38 0 0 Z " fill="#B4D6B5" transform="translate(369,288)"/>
<path d="M0 0 C0.33 0 0.66 0 1 0 C1 10.89 1 21.78 1 33 C0.67 33 0.34 33 0 33 C-0.33765809 29.29204724 -0.66935514 25.58358419 -1 21.875 C-1.09539062 20.82828125 -1.19078125 19.7815625 -1.2890625 18.703125 C-2.5754668 4.18513356 -2.5754668 4.18513356 0 0 Z " fill="#DCF5DD" transform="translate(336,375)"/>
<path d="M0 0 C0 4.37657589 -1.45609087 7.12586033 -3.75 10.8125 C-6 13 -6 13 -9.25 13.3125 C-10.1575 13.209375 -11.065 13.10625 -12 13 C-11.319375 12.34 -10.63875 11.68 -9.9375 11 C-6.43274653 7.50531766 -3.22778212 3.74869221 0 0 Z " fill="#428645" transform="translate(432,292)"/>
<path d="M0 0 C1.22086722 3.47233665 0.80390939 5.27633448 -0.625 8.625 C-1.17800781 9.924375 -1.17800781 9.924375 -1.7421875 11.25 C-3.71330913 15.55953301 -5.81667726 19.79441932 -8 24 C-9.12377697 20.69564916 -8.89554742 18.9493138 -7.5625 15.75 C-7.27503906 15.04359375 -6.98757813 14.3371875 -6.69140625 13.609375 C-6.46324219 13.07828125 -6.23507812 12.5471875 -6 12 C-5.01 12 -4.02 12 -3 12 C-2.67 9.03 -2.34 6.06 -2 3 C-1.34 3 -0.68 3 0 3 C0 2.01 0 1.02 0 0 Z " fill="#E2F8E0" transform="translate(447,258)"/>
<path d="M0 0 C0.33 3.63 0.66 7.26 1 11 C0.34 10.34 -0.32 9.68 -1 9 C-1 7.02 -1 5.04 -1 3 C-7.27 3 -13.54 3 -20 3 C-20 2.67 -20 2.34 -20 2 C-17.2294096 1.66453392 -14.45856036 1.33154158 -11.6875 1 C-10.90181641 0.90460938 -10.11613281 0.80921875 -9.30664062 0.7109375 C-8.54931641 0.62070312 -7.79199219 0.53046875 -7.01171875 0.4375 C-6.31522217 0.35371094 -5.61872559 0.26992188 -4.90112305 0.18359375 C-3 0 -3 0 0 0 Z " fill="#5C955D" transform="translate(333,370)"/>
<path d="M0 0 C0.33 0.66 0.66 1.32 1 2 C0.67 2.66 0.34 3.32 0 4 C-0.44080589 8.3148115 -0.47056025 11.94684134 1.3125 15.9375 C3.01097679 18.21872261 3.01097679 18.21872261 6 20 C5.67 20.99 5.34 21.98 5 23 C4.34 23 3.68 23 3 23 C2.34 22.01 1.68 21.02 1 20 C0.34 19.67 -0.32 19.34 -1 19 C-2.400189 15.37183731 -2.09801152 11.58524417 -2.0625 7.75 C-2.05347656 6.48671875 -2.04445312 5.2234375 -2.03515625 3.921875 C-2.02355469 2.95765625 -2.01195312 1.9934375 -2 1 C-1.34 0.67 -0.68 0.34 0 0 Z " fill="#509052" transform="translate(255,445)"/>
<path d="M0 0 C10.23 0 20.46 0 31 0 C31.33 0.99 31.66 1.98 32 3 C30.9378125 2.84660156 29.875625 2.69320313 28.78125 2.53515625 C23.03902858 1.81737857 17.27901585 1.6483373 11.5 1.4375 C10.39140625 1.39431641 9.2828125 1.35113281 8.140625 1.30664062 C5.42718494 1.20137786 2.71366583 1.09924154 0 1 C0 0.67 0 0.34 0 0 Z " fill="#C1E2C3" transform="translate(245,302)"/>
<path d="M0 0 C1.125 3.75 1.125 3.75 0 6 C-0.07116382 8.37402501 -0.08409085 10.75000677 -0.0625 13.125 C-0.05347656 14.40632813 -0.04445312 15.68765625 -0.03515625 17.0078125 C-0.02355469 17.99523437 -0.01195312 18.98265625 0 20 C-2.59271259 16.11093112 -3.1754933 14.25683333 -3.25 9.625 C-3.27578125 8.66851562 -3.3015625 7.71203125 -3.328125 6.7265625 C-2.95439914 3.62107853 -2.06626291 2.29463934 0 0 Z " fill="#D4F0D6" transform="translate(214,281)"/>
<path d="M0 0 C1.07507813 0.10699219 2.15015625 0.21398437 3.2578125 0.32421875 C4.99224609 0.48664063 4.99224609 0.48664063 6.76171875 0.65234375 C7.95667969 0.7709375 9.15164063 0.88953125 10.3828125 1.01171875 C12.65334597 1.2028157 14.92416346 1.39058244 17.1953125 1.57421875 C18.92451523 1.7196239 20.65369623 1.86528908 22.3828125 2.01171875 C22.3828125 2.34171875 22.3828125 2.67171875 22.3828125 3.01171875 C19.19533221 3.04104447 16.00788722 3.05862614 12.8203125 3.07421875 C11.47743164 3.08678711 11.47743164 3.08678711 10.10742188 3.09960938 C5.08283307 3.11801446 0.33463959 2.87438273 -4.6171875 2.01171875 C-2.6171875 0.01171875 -2.6171875 0.01171875 0 0 Z " fill="#D5EFD6" transform="translate(290.6171875,369.98828125)"/>
<path d="M0 0 C3.9252025 3.70090521 6.94580156 7.54959656 10 12 C9.67 12.66 9.34 13.32 9 14 C8.01 14 7.02 14 6 14 C5.731875 13.21625 5.46375 12.4325 5.1875 11.625 C4.15185568 8.71885077 4.15185568 8.71885077 1 7 C0.3125 3.375 0.3125 3.375 0 0 Z " fill="#CDE9CF" transform="translate(323,301)"/>
<path d="M0 0 C0.66 0.99 1.32 1.98 2 3 C5.06556598 3.73343428 5.06556598 3.73343428 8 4 C8 4.66 8 5.32 8 6 C9.65 6 11.3 6 13 6 C13.33 6.99 13.66 7.98 14 9 C14.66 9.33 15.32 9.66 16 10 C12.76675911 9.25445269 9.68585699 8.24265063 6.5625 7.125 C5.63566406 6.79757812 4.70882813 6.47015625 3.75390625 6.1328125 C0.97355695 4.98912272 -1.46568142 3.60982124 -4 2 C-2.68 1.34 -1.36 0.68 0 0 Z " fill="#BFDEBD" transform="translate(261,360)"/>
<path d="M0 0 C-3.80273074 2.38171031 -7.89003197 2.65510945 -12.25 3.125 C-12.99507813 3.21136719 -13.74015625 3.29773438 -14.5078125 3.38671875 C-16.33777846 3.59786867 -18.16879879 3.79984545 -20 4 C-20 3.34 -20 2.68 -20 2 C-13.38190423 -0.46254726 -6.99560484 -0.18935472 0 0 Z " fill="#D5EFD6" transform="translate(385,320)"/>
<path d="M0 0 C1.98 0.66 3.96 1.32 6 2 C3.20375042 4.18697502 0.36692128 5.99152813 -2.75 7.6875 C-3.94882812 8.34298828 -3.94882812 8.34298828 -5.171875 9.01171875 C-5.77515625 9.33785156 -6.3784375 9.66398438 -7 10 C-7 9.01 -7 8.02 -7 7 C-6.34 7 -5.68 7 -5 7 C-5 6.34 -5 5.68 -5 5 C-4.01 5 -3.02 5 -2 5 C-2 4.34 -2 3.68 -2 3 C-1.34 3 -0.68 3 0 3 C0 2.01 0 1.02 0 0 Z " fill="#2D7D30" transform="translate(379,221)"/>
<path d="M0 0 C0.33 0 0.66 0 1 0 C1.8250398 3.82518454 2.32812083 6.20560221 0.8125 9.875 C-1.14079774 12.16507321 -2.05577584 12.69542509 -5 13 C-3.58192622 8.52761347 -1.88695626 4.28853694 0 0 Z " fill="#3D853C" transform="translate(361,422)"/>
<path d="M0 0 C3.97472087 3.70060219 6.87132836 6.72680102 7.1875 12.3125 C7.125625 13.199375 7.06375 14.08625 7 15 C4.66635648 12.07096942 2.95039164 9.11431797 1.3125 5.75 C0.65701172 4.41195313 0.65701172 4.41195313 -0.01171875 3.046875 C-0.50091797 2.03367187 -0.50091797 2.03367187 -1 1 C-0.67 0.67 -0.34 0.34 0 0 Z " fill="#E5F8E6" transform="translate(309,326)"/>
<path d="M0 0 C-2.90600261 1.25664978 -4.79604584 2 -8 2 C-8.33 2.99 -8.66 3.98 -9 5 C-12.63 5 -16.26 5 -20 5 C-16.46629579 3.23314789 -13.19202145 1.99566546 -9.4375 0.8125 C-8.30183594 0.44769531 -7.16617187 0.08289063 -5.99609375 -0.29296875 C-3 -1 -3 -1 0 0 Z " fill="#589557" transform="translate(397,318)"/>
<path d="M0 0 C2.475 0.495 2.475 0.495 5 1 C5.33 1.99 5.66 2.98 6 4 C6.66 3.67 7.32 3.34 8 3 C10.09749995 5.35968744 10.96905704 6.54616994 11.1875 9.75 C11.125625 10.4925 11.06375 11.235 11 12 C7.08060535 8.19588166 3.50897269 4.18423892 0 0 Z " fill="#DAF1D9" transform="translate(297,315)"/>
<path d="M0 0 C-1.72601379 0.81917642 -3.4559647 1.63006016 -5.1875 2.4375 C-6.63189453 3.11619141 -6.63189453 3.11619141 -8.10546875 3.80859375 C-10.76631586 4.90381422 -13.16784755 5.54954796 -16 6 C-16 5.01 -16 4.02 -16 3 C-13.36 2.34 -10.72 1.68 -8 1 C-8 0.67 -8 0.34 -8 0 C-2.25 -1.125 -2.25 -1.125 0 0 Z " fill="#D8EFD8" transform="translate(413,310)"/>
<path d="M0 0 C0.33 0 0.66 0 1 0 C1.12117187 0.6290625 1.24234375 1.258125 1.3671875 1.90625 C2.42678016 7.31832326 3.61599898 12.66171034 5 18 C0.29380902 13.77649528 0.29380902 13.77649528 -0.875 10.6875 C-1.0458125 7.01503125 -0.55451516 3.63515491 0 0 Z " fill="#448646" transform="translate(210,288)"/>
<path d="M0 0 C1.65 0 3.3 0 5 0 C1.49102731 4.18423892 -2.08060535 8.19588166 -6 12 C-6 10.68 -6 9.36 -6 8 C-5.34 8 -4.68 8 -4 8 C-4 7.34 -4 6.68 -4 6 C-3.34 6 -2.68 6 -2 6 C-1.34 4.02 -0.68 2.04 0 0 Z " fill="#337E36" transform="translate(361,236)"/>
<path d="M0 0 C2.31 0 4.62 0 7 0 C5.75 1.5 5.75 1.5 4 3 C2.68 3 1.36 3 0 3 C0.33 4.98 0.66 6.96 1 9 C0.01 9.66 -0.98 10.32 -2 11 C-1.85892253 9.54119891 -1.71197585 8.08296449 -1.5625 6.625 C-1.48128906 5.81289063 -1.40007812 5.00078125 -1.31640625 4.1640625 C-1 2 -1 2 0 0 Z " fill="#4F8B50" transform="translate(362,324)"/>
<path d="M0 0 C0.33 0 0.66 0 1 0 C2.20443195 7.05453001 3.28100502 13.83437211 3 21 C2.01 20.34 1.02 19.68 0 19 C-0.34057617 17.02880859 -0.34057617 17.02880859 -0.29296875 14.6484375 C-0.28330078 13.79765625 -0.27363281 12.946875 -0.26367188 12.0703125 C-0.23853516 11.18085938 -0.21339844 10.29140625 -0.1875 9.375 C-0.17396484 8.4778125 -0.16042969 7.580625 -0.14648438 6.65625 C-0.11106925 4.43690211 -0.06168461 2.21874812 0 0 Z " fill="#CAE7C7" transform="translate(360,364)"/>
<path d="M0 0 C0.33 0 0.66 0 1 0 C1.22084624 6.09781001 1.01167675 11.21642935 -1 17 C-1.33 17 -1.66 17 -2 17 C-2.21824777 10.9981863 -1.5056904 5.80766296 0 0 Z " fill="#CBEBCC" transform="translate(341,284)"/>
<path d="M0 0 C0.66 0.33 1.32 0.66 2 1 C-0.97 4.96 -0.97 4.96 -4 9 C-4.33 8.34 -4.66 7.68 -5 7 C-6.32 7.33 -7.64 7.66 -9 8 C-7.625 6.5 -7.625 6.5 -6 5 C-5.34 5 -4.68 5 -4 5 C-3.67 4.01 -3.34 3.02 -3 2 C-2.01 1.34 -1.02 0.68 0 0 Z " fill="#498948" transform="translate(393,251)"/>
<path d="M0 0 C0.99 0.33 1.98 0.66 3 1 C1.41037341 5.03520597 -0.28232318 9.01811282 -2 13 C-2.33 13 -2.66 13 -3 13 C-2.88557539 11.39504433 -2.75805306 9.79101881 -2.625 8.1875 C-2.55539062 7.29417969 -2.48578125 6.40085938 -2.4140625 5.48046875 C-2 3 -2 3 0 0 Z " fill="#317C32" transform="translate(352,247)"/>
<path d="M0 0 C1.65 0 3.3 0 5 0 C5 0.66 5 1.32 5 2 C6.65 2 8.3 2 10 2 C10.66 3.65 11.32 5.3 12 7 C7.69235185 5.43358249 3.93828536 3.31663844 0 1 C0 0.67 0 0.34 0 0 Z " fill="#C6E5C5" transform="translate(285,308)"/>
<path d="M0 0 C0 3.3 0 6.6 0 10 C0.66 10.33 1.32 10.66 2 11 C0.68 11 -0.64 11 -2 11 C-1.67 9.35 -1.34 7.7 -1 6 C-1.66 6 -2.32 6 -3 6 C-3.33 4.35 -3.66 2.7 -4 1 C-2 0 -2 0 0 0 Z " fill="#E6F4E5" transform="translate(369,285)"/>
<path d="M0 0 C0.15082031 0.60972656 0.30164063 1.21945312 0.45703125 1.84765625 C0.84447942 3.38351194 1.25751457 4.91300621 1.6875 6.4375 C2.064247 9.52682539 1.34306673 11.23486261 0 14 C-0.99 14 -1.98 14 -3 14 C-2.28547412 9.23649415 -1.20465156 4.65798604 0 0 Z " fill="#D0E8D2" transform="translate(345,268)"/>
<path d="M0 0 C0.66 0.66 1.32 1.32 2 2 C0.02 5.63 -1.96 9.26 -4 13 C-4.33 13 -4.66 13 -5 13 C-5 11.02 -5 9.04 -5 7 C-4.34 7 -3.68 7 -3 7 C-2.67 5.68 -2.34 4.36 -2 3 C-1.34 3 -0.68 3 0 3 C0 2.01 0 1.02 0 0 Z " fill="#E6F7E7" transform="translate(357,427)"/>
<path d="M0 0 C6.875 1.875 6.875 1.875 8 3 C8.04063832 4.66617115 8.042721 6.33388095 8 8 C6.85073734 7.04578192 5.70569459 6.08647955 4.5625 5.125 C3.92441406 4.59132813 3.28632813 4.05765625 2.62890625 3.5078125 C1 2 1 2 0 0 Z " fill="#478C46" transform="translate(315,293)"/>
<path d="M0 0 C0.99 0.33 1.98 0.66 3 1 C3 1.66 3 2.32 3 3 C2.34 3 1.68 3 1 3 C0.7525 3.763125 0.505 4.52625 0.25 5.3125 C-1.10995558 8.2364045 -2.31585826 9.30004356 -5 11 C-4.75 8.625 -4.75 8.625 -4 6 C-1.9375 4.6875 -1.9375 4.6875 0 4 C0 2.68 0 1.36 0 0 Z " fill="#3F823F" transform="translate(330,416)"/>
<path d="M0 0 C2.43840236 2.43840236 3.62292893 4.85240898 5 8 C4.67 8.66 4.34 9.32 4 10 C3.34 10 2.68 10 2 10 C2 9.01 2 8.02 2 7 C1.34 7 0.68 7 0 7 C-0.38133299 5.0085944 -0.71325582 3.00720923 -1 1 C-0.67 0.67 -0.34 0.34 0 0 Z " fill="#478A48" transform="translate(219,316)"/>
<path d="M0 0 C0.66 0 1.32 0 2 0 C1.06677104 3.22388187 0.58700229 4.66015657 -2.375 6.375 C-5.08323761 7.01981848 -6.42385222 6.95412881 -9 6 C-6.64031256 3.90250005 -5.45383006 3.03094296 -2.25 2.8125 C-1.13625 2.9053125 -1.13625 2.9053125 0 3 C0 2.01 0 1.02 0 0 Z " fill="#D8EFD6" transform="translate(420,460)"/>
<path d="M0 0 C-0.33 0.66 -0.66 1.32 -1 2 C-3.3306218 2.35179197 -5.66435067 2.68330179 -8 3 C-10.33588323 3.95584438 -10.33588323 3.95584438 -12 5 C-12.66 4.34 -13.32 3.68 -14 3 C-9.07015675 0.96006486 -5.42039575 -0.40652968 0 0 Z " fill="#E0F7DF" transform="translate(229,277)"/>
<path d="M0 0 C1.98 0.66 3.96 1.32 6 2 C4.35 3.98 2.7 5.96 1 8 C0.67 7.01 0.34 6.02 0 5 C-0.66 4.67 -1.32 4.34 -2 4 C-1.34 2.68 -0.68 1.36 0 0 Z " fill="#2E7E2F" transform="translate(211,277)"/>
<path d="M0 0 C1 2 1 2 0.44140625 4.1640625 C0.15136719 4.97617188 -0.13867188 5.78828125 -0.4375 6.625 C-0.72496094 7.44226563 -1.01242187 8.25953125 -1.30859375 9.1015625 C-1.53675781 9.72804688 -1.76492188 10.35453125 -2 11 C-2.66 10.67 -3.32 10.34 -4 10 C-4.25 6.6875 -4.25 6.6875 -4 3 C-2 1.0625 -2 1.0625 0 0 Z " fill="#317831" transform="translate(420,250)"/>
<path d="M0 0 C0.66 1.32 1.32 2.64 2 4 C1.01 5.32 0.02 6.64 -1 8 C-1.33 7.67 -1.66 7.34 -2 7 C-2.33 7.99 -2.66 8.98 -3 10 C-3.66 10 -4.32 10 -5 10 C-3.66511872 6.40608886 -2.03977277 3.24509304 0 0 Z " fill="#CCE7CA" transform="translate(356,247)"/>
<path d="M0 0 C2.88437779 1.29299694 4.87219421 2.65941363 7 5 C6.67 5.66 6.34 6.32 6 7 C4.35 6.67 2.7 6.34 1 6 C0.67 4.02 0.34 2.04 0 0 Z " fill="#C8E3C4" transform="translate(445,213)"/>
<path d="M0 0 C0.66 0.33 1.32 0.66 2 1 C1.67 2.65 1.34 4.3 1 6 C0.01 6.33 -0.98 6.66 -2 7 C-2.6875 5.1875 -2.6875 5.1875 -3 3 C-1.5625 1.25 -1.5625 1.25 0 0 Z " fill="#D5EBD3" transform="translate(259,441)"/>
<path d="M0 0 C1.125 1.6875 1.125 1.6875 2 4 C1.25 6.5 1.25 6.5 0 9 C-0.37125 9.763125 -0.7425 10.52625 -1.125 11.3125 C-1.41375 11.869375 -1.7025 12.42625 -2 13 C-2.66 13 -3.32 13 -4 13 C-4 12.34 -4 11.68 -4 11 C-3.34 11 -2.68 11 -2 11 C-1.7834375 9.6696875 -1.7834375 9.6696875 -1.5625 8.3125 C-1.08980022 5.52882354 -0.56929815 2.76516243 0 0 Z " fill="#D2EED3" transform="translate(335,408)"/>
<path d="M0 0 C1.65 0 3.3 0 5 0 C5.33 0.99 5.66 1.98 6 3 C8.00016466 4.20882096 8.00016466 4.20882096 10 5 C10 5.66 10 6.32 10 7 C5.56541027 5.6062718 3.12621626 3.39417765 0 0 Z " fill="#BDDEBE" transform="translate(247,354)"/>
<path d="M0 0 C1.32 0 2.64 0 4 0 C2.7874262 3.72433382 1.49140021 7.37802806 0 11 C-1.37432457 7.18243176 -0.67975039 3.92744671 0 0 Z " fill="#357B38" transform="translate(345,260)"/>
<path d="M0 0 C0.33 0 0.66 0 1 0 C1 2.64 1 5.28 1 8 C0.01 8 -0.98 8 -2 8 C-2.12375 8.639375 -2.2475 9.27875 -2.375 9.9375 C-2.58125 10.618125 -2.7875 11.29875 -3 12 C-3.99 12.495 -3.99 12.495 -5 13 C-3.58192622 8.52761347 -1.88695626 4.28853694 0 0 Z " fill="#B3D8B5" transform="translate(419,255)"/>
<path d="M0 0 C0 0.66 0 1.32 0 2 C-0.99 2.33 -1.98 2.66 -3 3 C-3.6496875 3.7115625 -3.6496875 3.7115625 -4.3125 4.4375 C-6.61015902 6.56496206 -9.02750796 7.14128008 -12 8 C-4.43243243 0 -4.43243243 0 0 0 Z " fill="#BADBBC" transform="translate(383,225)"/>
<path d="M0 0 C-1.9626228 2.04795423 -3.4277307 2.94976638 -6.26953125 3.19921875 C-8.51954383 3.18858877 -10.75385562 3.12958525 -13 3 C-13 2.34 -13 1.68 -13 1 C-8.60563789 0.14256349 -4.47427924 -0.08948558 0 0 Z " fill="#E2F5E3" transform="translate(433,212)"/>
<path d="M0 0 C2.64 1.98 5.28 3.96 8 6 C6.68 6.33 5.36 6.66 4 7 C4 6.01 4 5.02 4 4 C3.01 4.33 2.02 4.66 1 5 C0.34 3.68 -0.32 2.36 -1 1 C-0.67 0.67 -0.34 0.34 0 0 Z " fill="#378137" transform="translate(233,342)"/>
<path d="M0 0 C4.50802601 1.25805377 7.4912812 2.90407165 11 6 C9.35 6.33 7.7 6.66 6 7 C5.67 5.68 5.34 4.36 5 3 C3.35 2.67 1.7 2.34 0 2 C0 1.34 0 0.68 0 0 Z " fill="#3A823B" transform="translate(283,308)"/>
<path d="M0 0 C0.33 0.66 0.66 1.32 1 2 C-0.21258505 5.23356015 -1.01284458 6.00856305 -4 8 C-6.1875 7.625 -6.1875 7.625 -8 7 C-4.25 4 -4.25 4 -2 4 C-1.34 2.68 -0.68 1.36 0 0 Z " fill="#C6E5C8" transform="translate(407,277)"/>
<path d="M0 0 C0.33 0 0.66 0 1 0 C0.93993922 1.45947705 0.8511311 2.91779272 0.75 4.375 C0.70359375 5.18710937 0.6571875 5.99921875 0.609375 6.8359375 C0 9 0 9 -2.046875 10.2890625 C-3.01367188 10.64097656 -3.01367188 10.64097656 -4 11 C-2.95902388 7.13351728 -1.96301592 3.50538557 0 0 Z " fill="#4C8F4D" transform="translate(445,268)"/>
<path d="M0 0 C0.99 0 1.98 0 3 0 C3 1.32 3 2.64 3 4 C0.5 5.75 0.5 5.75 -2 7 C-1.125 1.125 -1.125 1.125 0 0 Z " fill="#2F7B30" transform="translate(322,424)"/>
<path d="M0 0 C0.99 0 1.98 0 3 0 C3 0.66 3 1.32 3 2 C3.66 2 4.32 2 5 2 C5 3.32 5 4.64 5 6 C5.66 6 6.32 6 7 6 C6.67 6.99 6.34 7.98 6 9 C4.99712471 7.68969568 3.99777175 6.37669473 3 5.0625 C2.443125 4.33160156 1.88625 3.60070312 1.3125 2.84765625 C0 1 0 1 0 0 Z " fill="#D7F2D8" transform="translate(228,332)"/>
<path d="M0 0 C2.31 0.33 4.62 0.66 7 1 C7 2.32 7 3.64 7 5 C6.01 5 5.02 5 4 5 C1.8125 2.5 1.8125 2.5 0 0 Z " fill="#418742" transform="translate(260,327)"/>
<path d="M0 0 C0.66 0.33 1.32 0.66 2 1 C1.375 2.9375 1.375 2.9375 0 5 C-3.125 5.75 -3.125 5.75 -6 6 C-5 3 -5 3 -2.5625 1.25 C-1.716875 0.8375 -0.87125 0.425 0 0 Z " fill="#518E50" transform="translate(418,305)"/>
<path d="M0 0 C0 2.31 0 4.62 0 7 C-0.33 5.68 -0.66 4.36 -1 3 C-3.64 2.67 -6.28 2.34 -9 2 C-5.86501708 0.14223235 -3.62528568 -0.20140476 0 0 Z " fill="#47844B" transform="translate(422,242)"/>
<path d="M0 0 C1.485 0.99 1.485 0.99 3 2 C3 2.66 3 3.32 3 4 C3.66 4.33 4.32 4.66 5 5 C3.35 5.66 1.7 6.32 0 7 C0 4.69 0 2.38 0 0 Z " fill="#2B7B29" transform="translate(310,430)"/>
<path d="M0 0 C3.3 0 6.6 0 10 0 C10.33 0.99 10.66 1.98 11 3 C9.54077307 2.88590407 8.08259402 2.75834456 6.625 2.625 C5.40683594 2.52058594 5.40683594 2.52058594 4.1640625 2.4140625 C2 2 2 2 0 0 Z " fill="#E2F6E3" transform="translate(275,368)"/>
<path d="M0 0 C3.53600465 1.91135386 5.78972846 3.62642766 8 7 C5.83125748 6.49396008 4.00032373 6.00016187 2 5 C2 4.01 2 3.02 2 2 C1.34 2 0.68 2 0 2 C0 1.34 0 0.68 0 0 Z " fill="#428243" transform="translate(294,314)"/>
<path d="M0 0 C2.31 0.33 4.62 0.66 7 1 C4.03312999 2.64826111 1.34373475 3.44271087 -2 4 C-1.34 2.68 -0.68 1.36 0 0 Z " fill="#3E833E" transform="translate(382,288)"/>
<path d="M0 0 C0.99 0 1.98 0 3 0 C1.70700306 2.88437779 0.34058637 4.87219421 -2 7 C-2.125 4.625 -2.125 4.625 -2 2 C-1.34 1.34 -0.68 0.68 0 0 Z " fill="#337C34" transform="translate(410,269)"/>
<path d="M0 0 C1.98 0.66 3.96 1.32 6 2 C5.01 3.32 4.02 4.64 3 6 C0 2.25 0 2.25 0 0 Z " fill="#3F8943" transform="translate(246,306)"/>
<path d="M0 0 C2.9375 0.8125 2.9375 0.8125 6 2 C6.33 2.99 6.66 3.98 7 5 C4.625 4.75 4.625 4.75 2 4 C0.6875 1.9375 0.6875 1.9375 0 0 Z " fill="#D3ECD0" transform="translate(309,290)"/>
<path d="M0 0 C0.97791242 2.64036353 1.03638105 3.87266632 0.25 6.625 C-1 9 -1 9 -4 11 C-2.7874262 7.27566618 -1.49140021 3.62197194 0 0 Z " fill="#CCE9CD" transform="translate(350,257)"/>
<path d="M0 0 C-1.33333333 0.66666667 -2.66666667 1.33333333 -4 2 C-4.680625 2.391875 -5.36125 2.78375 -6.0625 3.1875 C-8 4 -8 4 -11 3 C-7.16674383 0.29417212 -4.67461851 -0.32613618 0 0 Z " fill="#BEDEC0" transform="translate(413,243)"/>
<path d="M0 0 C1.7074998 1.28062485 3.37373596 2.61767557 5 4 C5 4.66 5 5.32 5 6 C1.34683329 4.75023244 0.21934164 4.32901247 -2 1 C-1.34 0.67 -0.68 0.34 0 0 Z " fill="#DEF6DF" transform="translate(258,460)"/>
<path d="M0 0 C1.98 0.99 3.96 1.98 6 3 C6 3.33 6 3.66 6 4 C4.02 4 2.04 4 0 4 C0 2.68 0 1.36 0 0 Z " fill="#2A7B2D" transform="translate(252,359)"/>
<path d="M0 0 C1.32 0.33 2.64 0.66 4 1 C4.33 2.32 4.66 3.64 5 5 C4.01 5.66 3.02 6.32 2 7 C1.34 4.69 0.68 2.38 0 0 Z " fill="#CFE7D0" transform="translate(216,308)"/>
<path d="M0 0 C1.125 1.75 1.125 1.75 2 4 C1.125 6.25 1.125 6.25 0 8 C-1.125 6.25 -1.125 6.25 -2 4 C-1.125 1.75 -1.125 1.75 0 0 Z " fill="#2C7D2D" transform="translate(378,267)"/>
</svg>
